<?xml version="1.0" encoding="UTF-8"?>
<svg width="103px" height="103px" viewBox="0 0 103 103" version="1.1" xmlns="http://www.w3.org/2000/svg" xmlns:xlink="http://www.w3.org/1999/xlink">
    <!-- Generator: Sketch 52.3 (67297) - http://www.bohemiancoding.com/sketch -->
    <title>1</title>
    <desc>Created with Sketch.</desc>
    <g id="1" stroke="none" stroke-width="1" fill="none" fill-rule="evenodd">
        <path d="M26.1607862,32.97035 L19.0850247,32.7088736 L20.669469,-4.02964996 L27.0850247,-3.81016657 L26.1607862,32.97035 Z M24.6229282,70.9706083 L18.0948879,70.6581837 L19.5466837,33.9706083 L26.0948879,34.316507 L24.6229282,70.9706083 Z M18.5532227,-7 L18.536798,-7 L15,73.6364953 L21.3673313,73.912402 L28.5832752,74.2214176 L28.5832752,74.237972 L31.928451,74.3869616 L67.9096218,75.9982568 C65.4513829,78.9118316 65.243336,84.3968571 67.7179996,89.5949395 C70.7018307,95.946312 76.5216701,99.4448091 80.6880838,97.4306901 C84.8709223,95.4055348 85.8071335,88.6347841 82.8233024,82.2944479 C80.4964616,77.3998629 76.5052453,74.2103813 72.8698988,73.9455108 L72.8698988,73.912402 L32.0269996,72.0914177 L33.6421008,35.2082086 L69.6177966,36.8360582 C67.1650327,39.7275606 66.9734105,45.2401766 69.4261745,50.4161865 C72.4154805,56.767559 78.229845,60.2826105 82.4181584,58.2629734 C86.5845721,56.2433363 87.542683,49.4670675 84.5369522,43.1543219 C82.2265362,38.2376643 78.2188951,35.0426646 74.5944984,34.7833123 L74.5944984,34.7502035 L33.7570741,32.9237011 L35.3721753,-3.94295364 L71.3533461,-2.34821285 C68.8786825,0.58743455 68.6815854,6.06142369 71.1398243,11.2705424 C74.145555,17.5888061 79.9599195,21.1038576 84.1318082,19.0842204 C88.2982219,17.0976921 89.2508579,10.3214233 86.2451271,3.97556896 C83.9347111,-0.946606763 79.9325449,-4.13608834 76.3136232,-4.39544065 L76.3136232,-4.42303132 L18.5532227,-7 Z" id="Fill-1041" fill="#98C4E2" transform="translate(51.500000, 45.500000) rotate(-273.000000) translate(-51.500000, -45.500000) "></path>
    </g>
</svg>