<?xml version="1.0" encoding="UTF-8"?>
<svg width="103px" height="103px" viewBox="0 0 103 103" version="1.1" xmlns="http://www.w3.org/2000/svg" xmlns:xlink="http://www.w3.org/1999/xlink">
    <!-- Generator: Sketch 52.3 (67297) - http://www.bohemiancoding.com/sketch -->
    <title>3</title>
    <desc>Created with Sketch.</desc>
    <g id="3" stroke="none" stroke-width="1" fill="none" fill-rule="evenodd">
        <path d="M18.3915357,-3.30238428 L18.375111,-3.30238428 L14.838313,77.334111 L21.2056443,77.6100178 L28.4215882,77.9190333 L28.4215882,77.9355877 L31.766764,78.0845773 L67.7479347,79.6958725 C65.2896959,82.6094474 65.081649,88.0944728 67.5563126,93.2925552 C70.5401437,99.6439277 76.3599831,103.142425 80.5263968,101.128306 C84.7092353,99.1031505 85.6454465,92.3323999 82.6616154,85.9920636 C80.3347746,81.0974786 76.3435583,77.907997 72.7082118,77.6431266 L72.7082118,77.6100178 L31.8653125,75.7890335 L33.4804138,38.9058244 L69.4561096,40.5336739 C67.0033457,43.4251763 66.8117235,48.9377924 69.2644874,54.1138023 C72.2537935,60.4651747 78.0681579,63.9802262 82.2564713,61.9605891 C86.4228851,59.940952 87.380996,53.1646832 84.3752652,46.8519376 C82.0648492,41.93528 78.0572081,38.7402803 74.4328114,38.480928 L74.4328114,38.4478192 L33.5953871,36.6213168 L35.2104883,-0.245337922 L71.1916591,1.34940287 C68.7169955,4.28505027 68.5198984,9.75903942 70.9781372,14.9681581 C73.983868,21.2864218 79.7982325,24.8014733 83.9701211,22.7818362 C88.1365348,20.7953079 89.0891708,14.019039 86.08344,7.67318468 C83.773024,2.75100896 79.7708579,-0.43847262 76.1519361,-0.697824928 L76.1519361,-0.725415599 L18.3915357,-3.30238428 Z" id="Fill-1041" fill="#98C4E2" transform="translate(51.338313, 49.197616) rotate(-273.000000) translate(-51.338313, -49.197616) "></path>
    </g>
</svg>