<?xml version="1.0" encoding="UTF-8"?>
<svg width="103px" height="103px" viewBox="0 0 103 103" version="1.1" xmlns="http://www.w3.org/2000/svg" xmlns:xlink="http://www.w3.org/1999/xlink">
    <!-- Generator: Sketch 52.3 (67297) - http://www.bohemiancoding.com/sketch -->
    <title>4</title>
    <desc>Created with Sketch.</desc>
    <g id="4" stroke="none" stroke-width="1" fill="none" fill-rule="evenodd">
        <path d="M29.7200779,113.705436 L29.7472664,113.652319 L29.7581418,113.742619 L83.3412086,86.5836315 L81.394513,74.5472018 L81.3781999,74.5472018 L71.8676678,16.0966844 C76.5114611,18.587896 83.9828568,17.3715049 90.334087,12.6706045 C98.0828053,6.93391248 101.198606,-1.78798406 97.2997769,-6.81821306 C93.3955104,-11.8590656 83.9828568,-11.2907081 76.2395762,-5.55932787 C70.2635472,-1.13463858 67.0553059,5.08542284 67.6969541,10.0094168 L67.6697657,10.0094168 L78.4255304,76.0557393 L30.7260519,100.229522 L21.2263951,41.8427456 C25.859313,44.3286455 33.3415841,43.1175661 39.698252,38.4007304 C47.4252195,32.6799737 50.5518953,23.9474537 46.6530665,18.9225364 C42.7651131,13.8869957 33.325271,14.4500414 25.5983035,20.1867334 C19.6222745,24.6114226 16.4194709,30.8208606 17.0611191,35.7448545 L17.0448061,35.7448545 L29.7200779,113.705436 Z" id="Fill-29" fill="#98C4E2" transform="translate(57.980166, 51.742619) rotate(-164.000000) translate(-57.980166, -51.742619) "></path>
    </g>
</svg>