<?xml version="1.0" encoding="UTF-8"?>
<svg width="103px" height="103px" viewBox="0 0 103 103" version="1.1" xmlns="http://www.w3.org/2000/svg" xmlns:xlink="http://www.w3.org/1999/xlink">
    <!-- Generator: Sketch 52.3 (67297) - http://www.bohemiancoding.com/sketch -->
    <title>5</title>
    <desc>Created with Sketch.</desc>
    <g id="5" stroke="none" stroke-width="1" fill="none" fill-rule="evenodd">
        <path d="M38.6778041,92.145205 L33.7415921,99.982527 L-6.32219589,73.8498005 L-1.38107715,65.982527 L38.6778041,92.145205 Z M-13,76.6048911 L-12.9705761,76.6345615 L-12.9852881,76.6642319 L36.9567934,109 L41.9196162,101.152185 L41.9049042,101.152185 L47.3777403,92.5082143 L47.4071642,92.5082143 L50.0258869,88.3642514 L50.0111749,88.3642514 L78.1845114,43.8883532 C80.023502,49.1103399 86.6585802,53.343314 94.8825463,53.9861722 C104.896463,54.8021076 113.434284,50.0152864 113.973721,43.2751653 C114.508254,36.5597695 106.823725,30.4328363 96.8098085,29.6465712 C89.0664319,29.003713 82.2204828,31.7482231 79.2535779,36.124604 L79.2290581,36.124604 L47.245333,86.5840286 L2.79079954,57.808706 L30.9788479,13.3328078 C32.8031266,18.5547945 39.4578207,22.7877686 47.6768828,23.4602972 C57.6907998,24.2762326 66.2286203,19.4597411 66.7680575,12.71962 C67.3025908,6.00916925 59.6033501,-0.0930387032 49.5894331,-0.91391919 C41.8607685,-1.52710702 35.0001074,1.18773266 32.0528184,5.56905863 L32.0233946,5.56905863 L-13,76.6048911 Z" id="Fill-999" fill="#98C4E2" transform="translate(50.500000, 54.000000) rotate(-213.000000) translate(-50.500000, -54.000000) "></path>
    </g>
</svg>