<?xml version="1.0" encoding="UTF-8"?>
<svg width="123px" height="103px" viewBox="0 0 123 103" version="1.1" xmlns="http://www.w3.org/2000/svg" xmlns:xlink="http://www.w3.org/1999/xlink">
    <!-- Generator: Sketch 52.3 (67297) - http://www.bohemiancoding.com/sketch -->
    <title>1_30</title>
    <desc>Created with Sketch.</desc>
    <g id="1_30" stroke="none" stroke-width="1" fill="none" fill-rule="evenodd">
        <path d="M35.1512469,33.3451942 L28.0754853,33.0837178 L29.6599297,-3.65480578 L36.0754853,-3.43532238 L35.1512469,33.3451942 Z M33.6133889,71.3454525 L27.0853485,71.0330279 L28.5371444,34.3454525 L35.0853485,34.6913512 L33.6133889,71.3454525 Z M27.5436834,-6.62515581 L27.5272586,-6.62515581 L23.9904607,74.0113395 L30.357792,74.2872462 L37.5737359,74.5962617 L37.5737359,74.6128161 L40.9189117,74.7618058 L76.9000824,76.373101 C74.4418436,79.2866758 74.2337966,84.7717012 76.7084602,89.9697837 C79.6922914,96.3211562 85.5121308,99.8196532 89.6785445,97.8055343 C93.8613829,95.780379 94.7975942,89.0096283 91.8137631,82.6692921 C89.4869223,77.774707 85.495706,74.5852255 81.8603595,74.320355 L81.8603595,74.2872462 L41.0174602,72.4662619 L42.6325615,35.5830528 L78.6082573,37.2109024 C76.1554934,40.1024047 75.9638712,45.6150208 78.4166351,50.7910307 C81.4059412,57.1424032 87.2203056,60.6574547 91.408619,58.6378176 C95.5750327,56.6181805 96.5331437,49.8419116 93.5274129,43.5291661 C91.2169968,38.6125085 87.2093558,35.4175088 83.5849591,35.1581565 L83.5849591,35.1250477 L42.7475348,33.2985453 L44.362636,-3.56810946 L80.3438068,-1.97336867 C77.8691432,0.962278735 77.6720461,6.43626788 80.1302849,11.6453866 C83.1360157,17.9636503 88.9503802,21.4787018 93.1222688,19.4590646 C97.2886825,17.4725363 98.2413185,10.6962675 95.2355877,4.35041315 C92.9251717,-0.571762577 88.9230056,-3.76124416 85.3040838,-4.02059646 L85.3040838,-4.04818713 L27.5436834,-6.62515581 Z" id="Fill-1041" fill="#98C4E2" transform="translate(60.490461, 45.874844) rotate(118.000000) translate(-60.490461, -45.874844) "></path>
    </g>
</svg>