<?xml version="1.0" encoding="UTF-8"?>
<svg width="123px" height="103px" viewBox="0 0 123 103" version="1.1" xmlns="http://www.w3.org/2000/svg" xmlns:xlink="http://www.w3.org/1999/xlink">
    <!-- Generator: Sketch 52.3 (67297) - http://www.bohemiancoding.com/sketch -->
    <title>3_30</title>
    <desc>Created with Sketch.</desc>
    <g id="3_30" stroke="none" stroke-width="1" fill="none" fill-rule="evenodd">
        <path d="M28.4017185,-6.14376063 L28.3852937,-6.14376063 L24.8484958,74.4927347 L31.2158271,74.7686414 L38.431771,75.0776569 L38.431771,75.0942113 L41.7769468,75.2432009 L77.7581175,76.8544961 C75.2998787,79.768071 75.0918317,85.2530964 77.5664953,90.4511789 C80.5503265,96.8025513 86.3701659,100.301048 90.5365796,98.2869294 C94.719418,96.2617742 95.6556293,89.4910235 92.6717982,83.1506873 C90.3449574,78.2561022 86.3537411,75.0666207 82.7183946,74.8017502 L82.7183946,74.7686414 L41.8754953,72.9476571 L43.4905966,36.064448 L79.4662924,37.6922976 C77.0135285,40.5837999 76.8219063,46.096416 79.2746702,51.2724259 C82.2639762,57.6237984 88.0783407,61.1388499 92.2666541,59.1192128 C96.4330678,57.0995756 97.3911787,50.3233068 94.385448,44.0105613 C92.0750319,39.0939037 88.0673909,35.898904 84.4429942,35.6395517 L84.4429942,35.6064429 L43.6055699,33.7799404 L45.2206711,-3.08671427 L81.2018419,-1.49197349 C78.7271783,1.44367392 78.5300812,6.91766306 80.98832,12.1267818 C83.9940508,18.4450454 89.8084153,21.9600969 93.9803039,19.9404598 C98.1467176,17.9539315 99.0993536,11.1776627 96.0936228,4.83180833 C93.7832068,-0.0903673938 89.7810407,-3.27984897 86.1621189,-3.53920128 L86.1621189,-3.56679195 L28.4017185,-6.14376063 Z" id="Fill-1041" fill="#98C4E2" transform="translate(61.348496, 46.356239) rotate(117.000000) translate(-61.348496, -46.356239) "></path>
    </g>
</svg>