<?xml version="1.0" encoding="UTF-8"?>
<svg width="135px" height="103px" viewBox="0 0 135 103" version="1.1" xmlns="http://www.w3.org/2000/svg" xmlns:xlink="http://www.w3.org/1999/xlink">
    <!-- Generator: Sketch 52.3 (67297) - http://www.bohemiancoding.com/sketch -->
    <title>4_30</title>
    <desc>Created with Sketch.</desc>
    <g id="4_30" stroke="none" stroke-width="1" fill="none" fill-rule="evenodd">
        <path d="M41.7200779,113.705436 L41.7472664,113.652319 L41.7581418,113.742619 L95.3412086,86.5836315 L93.394513,74.5472018 L93.3781999,74.5472018 L83.8676678,16.0966844 C88.5114611,18.587896 95.9828568,17.3715049 102.334087,12.6706045 C110.082805,6.93391248 113.198606,-1.78798406 109.299777,-6.81821306 C105.39551,-11.8590656 95.9828568,-11.2907081 88.2395762,-5.55932787 C82.2635472,-1.13463858 79.0553059,5.08542284 79.6969541,10.0094168 L79.6697657,10.0094168 L90.4255304,76.0557393 L42.7260519,100.229522 L33.2263951,41.8427456 C37.859313,44.3286455 45.3415841,43.1175661 51.698252,38.4007304 C59.4252195,32.6799737 62.5518953,23.9474537 58.6530665,18.9225364 C54.7651131,13.8869957 45.325271,14.4500414 37.5983035,20.1867334 C31.6222745,24.6114226 28.4194709,30.8208606 29.0611191,35.7448545 L29.0448061,35.7448545 L41.7200779,113.705436 Z" id="Fill-29" fill="#98C4E2" transform="translate(69.980166, 51.742619) rotate(-134.000000) translate(-69.980166, -51.742619) "></path>
    </g>
</svg>