<?xml version="1.0" encoding="UTF-8"?>
<svg width="126px" height="112px" viewBox="0 0 126 112" version="1.1" xmlns="http://www.w3.org/2000/svg" xmlns:xlink="http://www.w3.org/1999/xlink">
    <!-- Generator: Sketch 52.3 (67297) - http://www.bohemiancoding.com/sketch -->
    <title>5_30</title>
    <desc>Created with Sketch.</desc>
    <g id="5_30" stroke="none" stroke-width="1" fill="none" fill-rule="evenodd">
        <path d="M51.6778041,94.145205 L46.7415921,101.982527 L6.67780411,75.8498005 L11.6189229,67.982527 L51.6778041,94.145205 Z M-1.54543045e-13,78.6048911 L0.0294238501,78.6345615 L0.014711925,78.6642319 L49.9567934,111 L54.9196162,103.152185 L54.9049042,103.152185 L60.3777403,94.5082143 L60.4071642,94.5082143 L63.0258869,90.3642514 L63.0111749,90.3642514 L91.1845114,45.8883532 C93.023502,51.1103399 99.6585802,55.343314 107.882546,55.9861722 C117.896463,56.8021076 126.434284,52.0152864 126.973721,45.2751653 C127.508254,38.5597695 119.823725,32.4328363 109.809808,31.6465712 C102.066432,31.003713 95.2204828,33.7482231 92.2535779,38.124604 L92.2290581,38.124604 L60.245333,88.5840286 L15.7907995,59.808706 L43.9788479,15.3328078 C45.8031266,20.5547945 52.4578207,24.7877686 60.6768828,25.4602972 C70.6907998,26.2762326 79.2286203,21.4597411 79.7680575,14.71962 C80.3025908,8.00916925 72.6033501,1.9069613 62.5894331,1.08608081 C54.8607685,0.472892976 48.0001074,3.18773266 45.0528184,7.56905863 L45.0233946,7.56905863 L-1.54543045e-13,78.6048911 Z" id="Fill-999" fill="#98C4E2" transform="translate(63.500000, 56.000000) rotate(177.000000) translate(-63.500000, -56.000000) "></path>
    </g>
</svg>