<?xml version="1.0" encoding="UTF-8"?>
<svg width="103px" height="103px" viewBox="0 0 103 103" version="1.1" xmlns="http://www.w3.org/2000/svg" xmlns:xlink="http://www.w3.org/1999/xlink">
    <!-- Generator: Sketch 52.3 (67297) - http://www.bohemiancoding.com/sketch -->
    <title>6_30</title>
    <desc>Created with Sketch.</desc>
    <g id="6_30" stroke="none" stroke-width="1" fill="none" fill-rule="evenodd">
        <path d="M35.0505875,77.1385117 L35.431128,77.1385117 C35.4489659,77.1736816 35.4846415,77.2088516 35.5203172,77.2440216 L36.0851821,77.2440216 C36.0316686,77.2088516 35.9722091,77.1736816 35.9246415,77.1385117 C39.0105875,76.8981835 41.8408578,75.374151 44.5046415,73.7856402 C47.5251821,71.9802479 49.8738307,71.2182317 51.6100469,70.9427335 L57.0505875,73.9907985 C52.5554524,75.7199891 47.751128,79.8348768 43.244101,79.9403867 C40.1700469,80.0107267 37.1376145,78.4866942 35.0505875,77.1385117 Z M71.7305966,82.2172465 C66.816423,84.2639032 61.5491351,89.1910399 56.6526172,89.2984263 C53.2862612,89.3742284 50.0022984,87.6244631 47.7305966,85.9820842 C51.4618374,85.7609948 54.8635049,83.7775064 58.0768448,81.6929486 C60.9841523,79.7915792 63.3617884,78.8251023 65.2686055,78.3008045 L71.7305966,82.2172465 Z M45.6729052,84.8010465 C56.2968383,96.7012278 64.5004364,92.8144502 71.8587415,88.3188262 C73.4824337,87.3040821 74.9601759,86.5722363 76.2858871,85.9941396 C77.2710486,85.5574921 78.2744539,85.1577444 79.3143466,84.9793955 C79.4116465,84.9424957 79.5211089,84.8994459 79.6062463,84.8625462 L79.62449,84.8994459 C80.2326144,84.8010465 80.8589826,84.7579968 81.5279194,84.8317963 C83.1576928,85.0162953 84.7570599,85.409893 86.2834522,85.9941396 L86.7091392,85.1946442 L21.536448,48.0611586 C26.4561743,45.9578708 30.1839769,39.1375601 30.3664142,31.0011571 C30.585339,21.0197647 25.4649316,12.8157121 18.9397568,12.7111627 C12.3963384,12.5635635 6.92930006,20.5093177 6.71645652,30.4661102 C6.54010045,38.1597158 9.56855993,44.7586277 13.959218,47.4461622 L13.959218,47.483062 L45.8006113,65.6316072 C40.6133102,67.2613478 34.9577533,72.4888176 29.6974773,72.6364167 C23.6527209,72.7471161 17.7660767,67.1506484 17.7660767,67.1506484 C22.9716216,73.8356598 27.5507982,76.406345 31.7103691,76.7753428 C36.8855077,82.6178091 41.4768468,84.6903471 45.6729052,84.8010465 Z" id="Fill-706" fill="#98C4E2" transform="translate(46.709139, 52.709139) rotate(-93.000000) translate(-46.709139, -52.709139) "></path>
    </g>
</svg>