<?xml version="1.0" encoding="UTF-8"?>
<svg width="103px" height="103px" viewBox="0 0 103 103" version="1.1" xmlns="http://www.w3.org/2000/svg" xmlns:xlink="http://www.w3.org/1999/xlink">
    <!-- Generator: Sketch 52.3 (67297) - http://www.bohemiancoding.com/sketch -->
    <title>7_30</title>
    <desc>Created with Sketch.</desc>
    <g id="7_30" stroke="none" stroke-width="1" fill="none" fill-rule="evenodd">
        <path d="M26.1141087,14.7702829 C21.6795853,17.0725754 18.3492876,17.8418918 15.9881241,17.9719968 C14.0850969,18.1756394 12.1820696,18.0398776 10.296663,17.4459201 L9.40388475,18.7413132 L74.9408546,58.9663794 C69.7075296,60.7765357 65.4785801,67.2874415 64.8383641,75.3652639 C64.0571832,85.1797049 68.908728,93.5290506 75.6750472,94.0268436 C82.4296193,94.5302933 88.5498489,86.9842044 89.3251563,77.1641066 C89.9125104,69.5557936 87.1636933,62.8808424 82.7409169,59.9732789 L82.7585376,59.9732789 L21.9204005,22.6501194 C28.2285835,22.0165647 35.6292451,15.6018234 42.1195078,15.7715256 C48.9093211,16.0091086 55.129401,22.3163718 55.129401,22.3163718 C43.8522024,6.89044639 34.5250194,10.4259078 26.1141087,14.7702829" id="Fill-27" fill="#98C4E2" transform="translate(49.403885, 52.550639) rotate(90.000000) translate(-49.403885, -52.550639) "></path>
    </g>
</svg>