<?xml version="1.0" encoding="UTF-8"?>
<svg width="111px" height="103px" viewBox="0 0 111 103" version="1.1" xmlns="http://www.w3.org/2000/svg" xmlns:xlink="http://www.w3.org/1999/xlink">
    <!-- Generator: Sketch 52.3 (67297) - http://www.bohemiancoding.com/sketch -->
    <title>1_60</title>
    <desc>Created with Sketch.</desc>
    <g id="1_60" stroke="none" stroke-width="1" fill="none" fill-rule="evenodd">
        <path d="M29.1607862,32.97035 L22.0850247,32.7088736 L23.669469,-4.02964996 L30.0850247,-3.81016657 L29.1607862,32.97035 Z M27.6229282,70.9706083 L21.0948879,70.6581837 L22.5466837,33.9706083 L29.0948879,34.316507 L27.6229282,70.9706083 Z M21.5532227,-7 L21.536798,-7 L18,73.6364953 L24.3673313,73.912402 L31.5832752,74.2214176 L31.5832752,74.237972 L34.928451,74.3869616 L70.9096218,75.9982568 C68.4513829,78.9118316 68.243336,84.3968571 70.7179996,89.5949395 C73.7018307,95.946312 79.5216701,99.4448091 83.6880838,97.4306901 C87.8709223,95.4055348 88.8071335,88.6347841 85.8233024,82.2944479 C83.4964616,77.3998629 79.5052453,74.2103813 75.8698988,73.9455108 L75.8698988,73.912402 L35.0269996,72.0914177 L36.6421008,35.2082086 L72.6177966,36.8360582 C70.1650327,39.7275606 69.9734105,45.2401766 72.4261745,50.4161865 C75.4154805,56.767559 81.229845,60.2826105 85.4181584,58.2629734 C89.5845721,56.2433363 90.542683,49.4670675 87.5369522,43.1543219 C85.2265362,38.2376643 81.2188951,35.0426646 77.5944984,34.7833123 L77.5944984,34.7502035 L36.7570741,32.9237011 L38.3721753,-3.94295364 L74.3533461,-2.34821285 C71.8786825,0.58743455 71.6815854,6.06142369 74.1398243,11.2705424 C77.145555,17.5888061 82.9599195,21.1038576 87.1318082,19.0842204 C91.2982219,17.0976921 92.2508579,10.3214233 89.2451271,3.97556896 C86.9347111,-0.946606763 82.9325449,-4.13608834 79.3136232,-4.39544065 L79.3136232,-4.42303132 L21.5532227,-7 Z" id="Fill-1041" fill="#98C4E2" transform="translate(54.500000, 45.500000) rotate(147.000000) translate(-54.500000, -45.500000) "></path>
    </g>
</svg>