<?xml version="1.0" encoding="UTF-8"?>
<svg width="111px" height="103px" viewBox="0 0 111 103" version="1.1" xmlns="http://www.w3.org/2000/svg" xmlns:xlink="http://www.w3.org/1999/xlink">
    <!-- Generator: Sketch 52.3 (67297) - http://www.bohemiancoding.com/sketch -->
    <title>3_60</title>
    <desc>Created with Sketch.</desc>
    <g id="3_60" stroke="none" stroke-width="1" fill="none" fill-rule="evenodd">
        <path d="M21.2582478,-6.5904704 L21.241823,-6.5904704 L17.7050251,74.0460249 L24.0723564,74.3219316 L31.2883003,74.6309471 L31.2883003,74.6475016 L34.6334761,74.7964912 L70.6146468,76.4077864 C68.156408,79.3213612 67.948361,84.8063866 70.4230247,90.0044691 C73.4068558,96.3558416 79.2266952,99.8543387 83.3931089,97.8402197 C87.5759474,95.8150644 88.5121586,89.0443137 85.5283275,82.7039775 C83.2014867,77.8093925 79.2102704,74.6199109 75.5749239,74.3550404 L75.5749239,74.3219316 L34.7320246,72.5009473 L36.3471259,35.6177382 L72.3228217,37.2455878 C69.8700578,40.1370902 69.6784356,45.6497062 72.1311995,50.8257161 C75.1205056,57.1770886 80.93487,60.6921401 85.1231834,58.672503 C89.2895971,56.6528659 90.2477081,49.876597 87.2419773,43.5638515 C84.9315612,38.6471939 80.9239202,35.4521942 77.2995235,35.1928419 L77.2995235,35.1597331 L36.4620992,33.3332307 L38.0772004,-3.53342405 L74.0583712,-1.93868326 C71.5837076,0.996964145 71.3866105,6.47095329 73.8448493,11.680072 C76.8505801,17.9983357 82.6649446,21.5133872 86.8368332,19.49375 C91.0032469,17.5072217 91.9558829,10.7309529 88.9501521,4.38509855 C86.6397361,-0.537077168 82.63757,-3.72655875 79.0186482,-3.98591105 L79.0186482,-4.01350173 L21.2582478,-6.5904704 Z" id="Fill-1041" fill="#98C4E2" transform="translate(54.205025, 45.909530) rotate(147.000000) translate(-54.205025, -45.909530) "></path>
    </g>
</svg>