<?xml version="1.0" encoding="UTF-8"?>
<svg width="128px" height="103px" viewBox="0 0 128 103" version="1.1" xmlns="http://www.w3.org/2000/svg" xmlns:xlink="http://www.w3.org/1999/xlink">
    <!-- Generator: Sketch 52.3 (67297) - http://www.bohemiancoding.com/sketch -->
    <title>4_60</title>
    <desc>Created with Sketch.</desc>
    <g id="4_60" stroke="none" stroke-width="1" fill="none" fill-rule="evenodd">
        <path d="M35.7200779,113.705436 L35.7472664,113.652319 L35.7581418,113.742619 L89.3412086,86.5836315 L87.394513,74.5472018 L87.3781999,74.5472018 L77.8676678,16.0966844 C82.5114611,18.587896 89.9828568,17.3715049 96.334087,12.6706045 C104.082805,6.93391248 107.198606,-1.78798406 103.299777,-6.81821306 C99.3955104,-11.8590656 89.9828568,-11.2907081 82.2395762,-5.55932787 C76.2635472,-1.13463858 73.0553059,5.08542284 73.6969541,10.0094168 L73.6697657,10.0094168 L84.4255304,76.0557393 L36.7260519,100.229522 L27.2263951,41.8427456 C31.859313,44.3286455 39.3415841,43.1175661 45.698252,38.4007304 C53.4252195,32.6799737 56.5518953,23.9474537 52.6530665,18.9225364 C48.7651131,13.8869957 39.325271,14.4500414 31.5983035,20.1867334 C25.6222745,24.6114226 22.4194709,30.8208606 23.0611191,35.7448545 L23.0448061,35.7448545 L35.7200779,113.705436 Z" id="Fill-29" fill="#98C4E2" transform="translate(63.980166, 51.742619) rotate(-93.000000) translate(-63.980166, -51.742619) "></path>
    </g>
</svg>