<?xml version="1.0" encoding="UTF-8"?>
<svg width="118px" height="103px" viewBox="0 0 118 103" version="1.1" xmlns="http://www.w3.org/2000/svg" xmlns:xlink="http://www.w3.org/1999/xlink">
    <!-- Generator: Sketch 52.3 (67297) - http://www.bohemiancoding.com/sketch -->
    <title>5_60</title>
    <desc>Created with Sketch.</desc>
    <g id="5_60" stroke="none" stroke-width="1" fill="none" fill-rule="evenodd">
        <path d="M44.6778041,92.145205 L39.7415921,99.982527 L-0.322195889,73.8498005 L4.61892285,65.982527 L44.6778041,92.145205 Z M-7,76.6048911 L-6.97057615,76.6345615 L-6.98528807,76.6642319 L42.9567934,109 L47.9196162,101.152185 L47.9049042,101.152185 L53.3777403,92.5082143 L53.4071642,92.5082143 L56.0258869,88.3642514 L56.0111749,88.3642514 L84.1845114,43.8883532 C86.023502,49.1103399 92.6585802,53.343314 100.882546,53.9861722 C110.896463,54.8021076 119.434284,50.0152864 119.973721,43.2751653 C120.508254,36.5597695 112.823725,30.4328363 102.809808,29.6465712 C95.0664319,29.003713 88.2204828,31.7482231 85.2535779,36.124604 L85.2290581,36.124604 L53.245333,86.5840286 L8.79079954,57.808706 L36.9788479,13.3328078 C38.8031266,18.5547945 45.4578207,22.7877686 53.6768828,23.4602972 C63.6907998,24.2762326 72.2286203,19.4597411 72.7680575,12.71962 C73.3025908,6.00916925 65.6033501,-0.0930387032 55.5894331,-0.91391919 C47.8607685,-1.52710702 41.0001074,1.18773266 38.0528184,5.56905863 L38.0233946,5.56905863 L-7,76.6048911 Z" id="Fill-999" fill="#98C4E2" transform="translate(56.500000, 54.000000) rotate(-134.000000) translate(-56.500000, -54.000000) "></path>
    </g>
</svg>