<?xml version="1.0" encoding="UTF-8"?>
<svg width="103px" height="103px" viewBox="0 0 103 103" version="1.1" xmlns="http://www.w3.org/2000/svg" xmlns:xlink="http://www.w3.org/1999/xlink">
    <!-- Generator: Sketch 52.3 (67297) - http://www.bohemiancoding.com/sketch -->
    <title>6_60</title>
    <desc>Created with Sketch.</desc>
    <g id="6_60" stroke="none" stroke-width="1" fill="none" fill-rule="evenodd">
        <path d="M38.2135381,76.3014623 L38.5940787,76.3014623 C38.6119165,76.3366323 38.6475922,76.3718023 38.6832679,76.4069722 L39.2481327,76.4069722 C39.1946192,76.3718023 39.1351598,76.3366323 39.0875922,76.3014623 C42.1735381,76.0611341 45.0038084,74.5371016 47.6675922,72.9485909 C50.6881327,71.1431986 53.0367814,70.3811823 54.7729976,70.1056842 L60.2135381,73.1537491 C55.718403,74.8829398 50.9140787,78.9978274 46.4070516,79.1033374 C43.3329976,79.1736773 40.3005652,77.6496449 38.2135381,76.3014623 Z M74.8935473,81.3801971 C69.9793737,83.4268539 64.7120858,88.3539906 59.8155679,88.4613769 C56.4492118,88.537179 53.1652491,86.7874138 50.8935473,85.1450349 C54.6247881,84.9239454 58.0264556,82.940457 61.2397954,80.8558992 C64.1471029,78.9545298 66.524739,77.988053 68.4315561,77.4637551 L74.8935473,81.3801971 Z M48.8358558,83.9639971 C59.459789,95.8641784 67.663387,91.9774009 75.0216922,87.4817768 C76.6453843,86.4670327 78.1231266,85.7351869 79.4488378,85.1570903 C80.4339993,84.7204428 81.4374045,84.3206951 82.4772972,84.1423461 C82.5745971,84.1054463 82.6840595,84.0623966 82.769197,84.0254968 L82.7874407,84.0623966 C83.3955651,83.9639971 84.0219332,83.9209474 84.69087,83.994747 C86.3206434,84.1792459 87.9200106,84.5728436 89.4464028,85.1570903 L89.8720899,84.3575949 L24.6993986,47.2241093 C29.619125,45.1208214 33.3469275,38.3005108 33.5293648,30.1641077 C33.7482896,20.1827154 28.6278822,11.9786627 22.1027075,11.8741133 C15.559289,11.7265142 10.0922507,19.6722683 9.87940716,29.6290608 C9.70305109,37.3226664 12.7315106,43.9215783 17.1221687,46.6091128 L17.1221687,46.6460126 L48.9635619,64.7945578 C43.7762608,66.4242984 38.120704,71.6517682 32.860428,71.7993674 C26.8156715,71.9100667 20.9290274,66.313599 20.9290274,66.313599 C26.1345722,72.9986105 30.7137489,75.5692956 34.8733197,75.9382935 C40.0484583,81.7807598 44.6397975,83.8532978 48.8358558,83.9639971 Z" id="Fill-706" fill="#98C4E2" transform="translate(49.872090, 51.872090) rotate(-36.000000) translate(-49.872090, -51.872090) "></path>
    </g>
</svg>