<?xml version="1.0" encoding="UTF-8"?>
<svg width="105px" height="103px" viewBox="0 0 105 103" version="1.1" xmlns="http://www.w3.org/2000/svg" xmlns:xlink="http://www.w3.org/1999/xlink">
    <!-- Generator: Sketch 52.3 (67297) - http://www.bohemiancoding.com/sketch -->
    <title>7_60</title>
    <desc>Created with Sketch.</desc>
    <g id="7_60" stroke="none" stroke-width="1" fill="none" fill-rule="evenodd">
        <path d="M28.0276875,16.7219926 C23.5931641,19.0242851 20.2628664,19.7936015 17.9017029,19.9237065 C15.9986757,20.1273491 14.0956484,19.9915874 12.2102417,19.3976298 L11.3174635,20.6930229 L76.8544333,60.9180892 C71.6211084,62.7282454 67.3921589,69.2391512 66.7519429,77.3169736 C65.970762,87.1314146 70.8223068,95.4807603 77.588626,95.9785533 C84.343198,96.482003 90.4634277,88.9359141 91.2387351,79.1158164 C91.8260892,71.5075033 89.077272,64.8325521 84.6544957,61.9249886 L84.6721163,61.9249886 L23.8339793,24.6018291 C30.1421622,23.9682744 37.5428238,17.5535331 44.0330866,17.7232353 C50.8228999,17.9608183 57.0429798,24.2680815 57.0429798,24.2680815 C45.7657811,8.84215611 36.4385981,12.3776176 28.0276875,16.7219926" id="Fill-27" fill="#98C4E2" transform="translate(51.317464, 54.502349) rotate(140.000000) translate(-51.317464, -54.502349) "></path>
    </g>
</svg>