<?xml version="1.0" encoding="UTF-8"?>
<svg width="103px" height="122px" viewBox="0 0 103 122" version="1.1" xmlns="http://www.w3.org/2000/svg" xmlns:xlink="http://www.w3.org/1999/xlink">
    <!-- Generator: Sketch 52.3 (67297) - http://www.bohemiancoding.com/sketch -->
    <title>1_90</title>
    <desc>Created with Sketch.</desc>
    <g id="1_90" stroke="none" stroke-width="1" fill="none" fill-rule="evenodd">
        <path d="M26.1607862,46.97035 L19.0850247,46.7088736 L20.669469,9.97035004 L27.0850247,10.1898334 L26.1607862,46.97035 Z M24.6229282,84.9706083 L18.0948879,84.6581837 L19.5466837,47.9706083 L26.0948879,48.316507 L24.6229282,84.9706083 Z M18.5532227,7 L18.536798,7 L15,87.6364953 L21.3673313,87.912402 L28.5832752,88.2214176 L28.5832752,88.237972 L31.928451,88.3869616 L67.9096218,89.9982568 C65.4513829,92.9118316 65.243336,98.3968571 67.7179996,103.594939 C70.7018307,109.946312 76.5216701,113.444809 80.6880838,111.43069 C84.8709223,109.405535 85.8071335,102.634784 82.8233024,96.2944479 C80.4964616,91.3998629 76.5052453,88.2103813 72.8698988,87.9455108 L72.8698988,87.912402 L32.0269996,86.0914177 L33.6421008,49.2082086 L69.6177966,50.8360582 C67.1650327,53.7275606 66.9734105,59.2401766 69.4261745,64.4161865 C72.4154805,70.767559 78.229845,74.2826105 82.4181584,72.2629734 C86.5845721,70.2433363 87.542683,63.4670675 84.5369522,57.1543219 C82.2265362,52.2376643 78.2188951,49.0426646 74.5944984,48.7833123 L74.5944984,48.7502035 L33.7570741,46.9237011 L35.3721753,10.0570464 L71.3533461,11.6517871 C68.8786825,14.5874345 68.6815854,20.0614237 71.1398243,25.2705424 C74.145555,31.5888061 79.9599195,35.1038576 84.1318082,33.0842204 C88.2982219,31.0976921 89.2508579,24.3214233 86.2451271,17.975569 C83.9347111,13.0533932 79.9325449,9.86391166 76.3136232,9.60455935 L76.3136232,9.57696868 L18.5532227,7 Z" id="Fill-1041" fill="#98C4E2" transform="translate(51.500000, 59.500000) rotate(-159.000000) translate(-51.500000, -59.500000) "></path>
    </g>
</svg>