<?xml version="1.0" encoding="UTF-8"?>
<svg width="107px" height="122px" viewBox="0 0 107 122" version="1.1" xmlns="http://www.w3.org/2000/svg" xmlns:xlink="http://www.w3.org/1999/xlink">
    <!-- Generator: Sketch 52.3 (67297) - http://www.bohemiancoding.com/sketch -->
    <title>3_90</title>
    <desc>Created with Sketch.</desc>
    <g id="3_90" stroke="none" stroke-width="1" fill="none" fill-rule="evenodd">
        <path d="M22.3915357,6.69761572 L22.375111,6.69761572 L18.838313,87.334111 L25.2056443,87.6100178 L32.4215882,87.9190333 L32.4215882,87.9355877 L35.766764,88.0845773 L71.7479347,89.6958725 C69.2896959,92.6094474 69.081649,98.0944728 71.5563126,103.292555 C74.5401437,109.643928 80.3599831,113.142425 84.5263968,111.128306 C88.7092353,109.103151 89.6454465,102.3324 86.6616154,95.9920636 C84.3347746,91.0974786 80.3435583,87.907997 76.7082118,87.6431266 L76.7082118,87.6100178 L35.8653125,85.7890335 L37.4804138,48.9058244 L73.4561096,50.5336739 C71.0033457,53.4251763 70.8117235,58.9377924 73.2644874,64.1138023 C76.2537935,70.4651747 82.0681579,73.9802262 86.2564713,71.9605891 C90.4228851,69.940952 91.380996,63.1646832 88.3752652,56.8519376 C86.0648492,51.93528 82.0572081,48.7402803 78.4328114,48.480928 L78.4328114,48.4478192 L37.5953871,46.6213168 L39.2104883,9.75466208 L75.1916591,11.3494029 C72.7169955,14.2850503 72.5198984,19.7590394 74.9781372,24.9681581 C77.983868,31.2864218 83.7982325,34.8014733 87.9701211,32.7818362 C92.1365348,30.7953079 93.0891708,24.019039 90.08344,17.6731847 C87.773024,12.751009 83.7708579,9.56152738 80.1519361,9.30217507 L80.1519361,9.2745844 L22.3915357,6.69761572 Z" id="Fill-1041" fill="#98C4E2" transform="translate(55.338313, 59.197616) rotate(-139.000000) translate(-55.338313, -59.197616) "></path>
    </g>
</svg>