<?xml version="1.0" encoding="UTF-8"?>
<svg width="103px" height="140px" viewBox="0 0 103 140" version="1.1" xmlns="http://www.w3.org/2000/svg" xmlns:xlink="http://www.w3.org/1999/xlink">
    <!-- Generator: Sketch 52.3 (67297) - http://www.bohemiancoding.com/sketch -->
    <title>4_90</title>
    <desc>Created with Sketch.</desc>
    <g id="4_90" stroke="none" stroke-width="1" fill="none" fill-rule="evenodd">
        <path d="M29.7200779,132.705436 L29.7472664,132.652319 L29.7581418,132.742619 L83.3412086,105.583631 L81.394513,93.5472018 L81.3781999,93.5472018 L71.8676678,35.0966844 C76.5114611,37.587896 83.9828568,36.3715049 90.334087,31.6706045 C98.0828053,25.9339125 101.198606,17.2120159 97.2997769,12.1817869 C93.3955104,7.14093443 83.9828568,7.70929188 76.2395762,13.4406721 C70.2635472,17.8653614 67.0553059,24.0854228 67.6969541,29.0094168 L67.6697657,29.0094168 L78.4255304,95.0557393 L30.7260519,119.229522 L21.2263951,60.8427456 C25.859313,63.3286455 33.3415841,62.1175661 39.698252,57.4007304 C47.4252195,51.6799737 50.5518953,42.9474537 46.6530665,37.9225364 C42.7651131,32.8869957 33.325271,33.4500414 25.5983035,39.1867334 C19.6222745,43.6114226 16.4194709,49.8208606 17.0611191,54.7448545 L17.0448061,54.7448545 L29.7200779,132.705436 Z" id="Fill-29" fill="#98C4E2" transform="translate(57.980166, 70.742619) rotate(-20.000000) translate(-57.980166, -70.742619) "></path>
    </g>
</svg>