<?xml version="1.0" encoding="UTF-8"?>
<svg width="106px" height="127px" viewBox="0 0 106 127" version="1.1" xmlns="http://www.w3.org/2000/svg" xmlns:xlink="http://www.w3.org/1999/xlink">
    <!-- Generator: Sketch 52.3 (67297) - http://www.bohemiancoding.com/sketch -->
    <title>5_90</title>
    <desc>Created with Sketch.</desc>
    <g id="5_90" stroke="none" stroke-width="1" fill="none" fill-rule="evenodd">
        <path d="M41.28362,99.5447005 L36.347408,107.382023 L-3.71638003,81.249296 L1.22473872,73.3820225 L41.28362,99.5447005 Z M-10.3941841,84.0043867 L-10.3647603,84.0340571 L-10.3794722,84.0637274 L39.5626093,116.399496 L44.525432,108.55168 L44.5107201,108.55168 L49.9835562,99.9077099 L50.0129801,99.9077099 L52.6317027,95.7637469 L52.6169908,95.7637469 L80.7903272,51.2878487 C82.6293179,56.5098354 89.2643961,60.7428095 97.4883622,61.3856677 C107.502279,62.2016032 116.0401,57.414782 116.579537,50.6746609 C117.11407,43.9592651 109.429541,37.8323318 99.4156243,37.0460668 C91.6722478,36.4032086 84.8262987,39.1477186 81.8593938,43.5240995 L81.8348739,43.5240995 L49.8511489,93.9835242 L5.3966154,65.2082016 L33.5846638,20.7323034 C35.4089425,25.9542901 42.0636366,30.1872642 50.2826987,30.8597927 C60.2966157,31.6757282 68.8344362,26.8592366 69.3738734,20.1191155 C69.9084067,13.4086648 62.2091659,7.30645684 52.1952489,6.48557636 C44.4665843,5.87238852 37.6059233,8.58722821 34.6586343,12.9685542 L34.6292104,12.9685542 L-10.3941841,84.0043867 Z" id="Fill-999" fill="#98C4E2" transform="translate(53.105816, 61.399496) rotate(-56.000000) translate(-53.105816, -61.399496) "></path>
    </g>
</svg>