<?xml version="1.0" encoding="UTF-8"?>
<svg width="103px" height="103px" viewBox="0 0 103 103" version="1.1" xmlns="http://www.w3.org/2000/svg" xmlns:xlink="http://www.w3.org/1999/xlink">
    <!-- Generator: Sketch 52.3 (67297) - http://www.bohemiancoding.com/sketch -->
    <title>6_90</title>
    <desc>Created with Sketch.</desc>
    <g id="6_90" stroke="none" stroke-width="1" fill="none" fill-rule="evenodd">
        <path d="M32.5525943,75.1401172 L32.9331349,75.1401172 C32.9509727,75.1752871 32.9866484,75.2104571 33.0223241,75.2456271 L33.5871889,75.2456271 C33.5336754,75.2104571 33.474216,75.1752871 33.4266484,75.1401172 C36.5125943,74.899789 39.3428646,73.3757565 42.0066484,71.7872457 C45.0271889,69.9818534 47.3758376,69.2198372 49.1120538,68.944339 L54.5525943,71.9924039 C50.0574592,73.7215946 45.2531349,77.8364823 40.7461079,77.9419922 C37.6720538,78.0123322 34.6396214,76.4882997 32.5525943,75.1401172 Z M69.2326035,80.2188519 C64.3184299,82.2655087 59.051142,87.1926454 54.1546241,87.3000317 C50.788268,87.3758338 47.5043053,85.6260686 45.2326035,83.9836897 C48.9638443,83.7626003 52.3655118,81.7791119 55.5788517,79.6945541 C58.4861592,77.7931846 60.8637953,76.8267078 62.7706123,76.3024099 L69.2326035,80.2188519 Z M43.174912,82.802652 C53.7988452,94.7028333 62.0024432,90.8160557 69.3607484,86.3204317 C70.9844405,85.3056875 72.4621828,84.5738418 73.787894,83.9957451 C74.7730555,83.5590976 75.7764607,83.1593499 76.8163535,82.981001 C76.9136534,82.9441012 77.0231158,82.9010514 77.1082532,82.8641516 L77.1264969,82.9010514 C77.7346213,82.802652 78.3609894,82.7596022 79.0299263,82.8334018 C80.6596996,83.0179008 82.2590668,83.4114985 83.785459,83.9957451 L84.2111461,83.1962497 L19.0384548,46.0627641 C23.9581812,43.9594762 27.6859837,37.1391656 27.868421,29.0027626 C28.0873458,19.0213702 22.9669384,10.8173176 16.4417637,10.7127682 C9.89834521,10.565169 4.43130692,18.5109232 4.21846338,28.4677157 C4.04210731,36.1613213 7.07056679,42.7602332 11.4612249,45.4477677 L11.4612249,45.4846674 L43.3026181,63.6332127 C38.1153171,65.2629533 32.4597602,70.4904231 27.1994842,70.6380222 C21.1547277,70.7487216 15.2680836,65.1522539 15.2680836,65.1522539 C20.4736284,71.8372653 25.0528051,74.4079505 29.2123759,74.7769483 C34.3875145,80.6194146 38.9788537,82.6919526 43.174912,82.802652 Z" id="Fill-706" fill="#98C4E2" transform="translate(44.211146, 50.710745) rotate(31.000000) translate(-44.211146, -50.710745) "></path>
    </g>
</svg>