<?xml version="1.0" encoding="UTF-8"?>
<svg width="103px" height="103px" viewBox="0 0 103 103" version="1.1" xmlns="http://www.w3.org/2000/svg" xmlns:xlink="http://www.w3.org/1999/xlink">
    <!-- Generator: Sketch 52.3 (67297) - http://www.bohemiancoding.com/sketch -->
    <title>7_90</title>
    <desc>Created with Sketch.</desc>
    <g id="7_90" stroke="none" stroke-width="1" fill="none" fill-rule="evenodd">
        <path d="M25.2797279,14.1575111 C20.8452044,16.4598036 17.5149067,17.22912 15.1537433,17.359225 C13.250716,17.5628676 11.3476887,17.4271059 9.4622821,16.8331483 L8.56950388,18.1285414 L74.1064737,58.3536077 C68.8731487,60.1637639 64.6441992,66.6746698 64.0039833,74.7524921 C63.2228023,84.5669331 68.0743472,92.9162789 74.8406663,93.4140718 C81.5952384,93.9175215 87.7154681,86.3714326 88.4907755,76.5513349 C89.0781296,68.9430218 86.3293124,62.2680706 81.9065361,59.3605071 L81.9241567,59.3605071 L21.0860196,22.0373476 C27.3942026,21.4037929 34.7948642,14.9890516 41.2851269,15.1587538 C48.0749402,15.3963368 54.2950201,21.7036 54.2950201,21.7036 C43.0178215,6.27767462 33.6906385,9.81313608 25.2797279,14.1575111" id="Fill-27" fill="#98C4E2" transform="translate(48.569504, 51.937867) rotate(215.000000) translate(-48.569504, -51.937867) "></path>
    </g>
</svg>